<svg
  width="200"
  height="200"
  viewBox="0 0 200 200"
  fill="none"
  xmlns="http://www.w3.org/2000/svg"
>
  <rect width="200" height="200" rx="20" fill="#AEC8DD" />
  <g filter="url(#filter0_i_487_13)">
    <path
      d="M40 149.125C40 152.375 40 155.625 40 158.875C41.9021 159.01 43.8042 159.146 45.7064 159.281C79.9445 161.719 114.183 164.156 148.421 166.594C150.323 166.729 152.225 166.865 154.127 167C154.127 158.333 154.127 149.667 154.127 141C152.225 141.135 150.323 141.271 148.421 141.406C114.183 143.844 79.9445 146.281 45.7064 148.719C43.8042 148.854 41.9021 148.99 40 149.125Z"
      fill="#004880"
    />
    <path
      d="M42.0005 40C42.0005 48.6667 42.0005 57.3334 42.0005 66C43.9026 65.8646 45.8047 65.7292 47.7068 65.5938C81.945 63.1563 116.183 60.7188 150.421 58.2813C152.323 58.1459 154.225 58.0104 156.128 57.875C156.128 54.625 156.128 51.375 156.128 48.125C154.225 47.9896 152.323 47.8542 150.421 47.7188C116.183 45.2813 81.945 42.8438 47.7068 40.4063C45.8047 40.2709 43.9026 40.1354 42.0005 40Z"
      fill="#004880"
    />
    <path
      d="M46.9998 58.3746C46.9998 58.3746 88.9326 72.6176 110.267 92.867C131.602 113.116 147.825 153.715 147.825 153.715"
      stroke="#004880"
      stroke-width="14"
      stroke-miterlimit="16"
    />
  </g>
  <defs>
    <filter
      id="filter0_i_487_13"
      x="40"
      y="40"
      width="116.127"
      height="131"
      filterUnits="userSpaceOnUse"
      color-interpolation-filters="sRGB"
    >
      <feFlood flood-opacity="0" result="BackgroundImageFix" />
      <feBlend
        mode="normal"
        in="SourceGraphic"
        in2="BackgroundImageFix"
        result="shape"
      />
      <feColorMatrix
        in="SourceAlpha"
        type="matrix"
        values="0 0 0 0 0 0 0 0 0 0 0 0 0 0 0 0 0 0 127 0"
        result="hardAlpha"
      />
      <feOffset dy="4" />
      <feGaussianBlur stdDeviation="2" />
      <feComposite in2="hardAlpha" operator="arithmetic" k2="-1" k3="1" />
      <feColorMatrix
        type="matrix"
        values="0 0 0 0 0 0 0 0 0 0 0 0 0 0 0 0 0 0 0.25 0"
      />
      <feBlend mode="normal" in2="shape" result="effect1_innerShadow_487_13" />
    </filter>
  </defs>
</svg>
